<?xml version="1.0" encoding="UTF-8" standalone="no"?>
<!-- Created with Inkscape (http://www.inkscape.org/) -->

<svg
   width="1200mm"
   height="1200mm"
   viewBox="0 0 1200 1200"
   version="1.1"
   id="svg1"
   xmlns="http://www.w3.org/2000/svg"
   xmlns:svg="http://www.w3.org/2000/svg">
  <defs
     id="defs1" />
  <g
     id="layer1">
    <path
       id="path5"
       style="color:#000000;fill:#000000;-inkscape-stroke:none"
       d="M 899.99985 200.0002 A 100 100 0 0 0 799.99975 299.99978 A 100 100 0 0 0 821.17675 361.14747 L 700.00017 482.32405 L 700.00017 499.99997 L 717.67609 499.99997 L 838.85267 378.82339 A 100 100 0 0 0 899.99985 399.99987 A 100 100 0 0 0 999.99994 300.00029 L 999.99994 299.99978 A 100 100 0 0 0 899.99985 200.0002 z M 899.99985 225.00022 A 75 75 0 0 1 974.99992 299.99978 L 974.99992 300.00029 A 75 75 0 0 1 899.99985 374.99985 A 75 75 0 0 1 824.99977 299.99978 A 75 75 0 0 1 899.99985 225.00022 z M 550.00002 399.99884 L 550.00002 549.99847 L 399.99987 549.99847 L 399.99987 649.99753 L 550.00002 649.99753 L 550.00002 799.99716 L 650.00012 799.99716 L 650.00012 649.99753 L 799.99975 649.99753 L 799.99975 549.99847 L 650.00012 549.99847 L 650.00012 399.99884 L 550.00002 399.99884 z M 482.32405 700.00017 L 361.29681 821.0274 A 100 100 0 0 0 299.99978 799.99975 A 100 100 0 0 0 200.0002 899.99985 A 100 100 0 0 0 299.99978 999.99994 A 100 100 0 0 0 399.99987 900.00036 L 399.99987 899.99985 A 100 100 0 0 0 378.97273 838.70333 L 499.99997 717.67609 L 499.99997 700.00017 L 482.32405 700.00017 z M 299.99978 824.99977 A 75 75 0 0 1 374.99985 899.99985 L 374.99985 900.00036 A 75 75 0 0 1 299.99978 974.99992 A 75 75 0 0 1 225.00022 899.99985 A 75 75 0 0 1 299.99978 824.99977 z " />
  </g>
</svg>
